{
  "accessors": [
    {
      "bufferView": 2,
      "componentType": 5126,
      "count": 65532,
      "max": [
        23.51340103149414,
        46.29880142211914,
        98.23727416992188
      ],
      "min": [
        -19.827999114990234,
        -31.387697219848633,
        -0.8320235013961792
      ],
      "type": "VEC3"
    },
    {
      "bufferView": 2,
      "byteOffset": 786384,
      "componentType": 5126,
      "count": 65532,
      "max": [
        0.9999622106552124,
        0.9999569058418274,
        0.9995706677436829
      ],
      "min": [
        -0.9999862909317017,
        -0.9999882578849792,
        -0.999975323677063
      ],
      "type": "VEC3"
    },
    {
      "bufferView": 1,
      "componentType": 5126,
      "count": 65532,
      "max": [
        0.9990360140800476,
        0.9990299940109253
      ],
      "min": [
        0.0009608889813534915,
        0.000961786019615829
      ],
      "type": "VEC2"
    },
    {
      "bufferView": 0,
      "componentType": 5125,
      "count": 365886,
      "type": "SCALAR"
    },
    {
      "bufferView": 2,
      "byteOffset": 1572768,
      "componentType": 5126,
      "count": 65532,
      "max": [
        20.467100143432617,
        46.1702995300293,
        97.84197998046875
      ],
      "min": [
        -31.639301300048828,
        -31.387697219848633,
        -0.8344268798828125
      ],
      "type": "VEC3"
    },
    {
      "bufferView": 2,
      "byteOffset": 2359152,
      "componentType": 5126,
      "count": 65532,
      "max": [
        0.9999719262123108,
        0.9999801516532898,
        0.9994379878044128
      ],
      "min": [
        -0.9999772906303406,
        -0.9999882578849792,
        -0.9999551177024841
      ],
      "type": "VEC3"
    },
    {
      "bufferView": 1,
      "byteOffset": 524256,
      "componentType": 5126,
      "count": 65532,
      "max": [
        0.9990299940109253,
        0.9990310072898865
      ],
      "min": [
        0.00096110999584198,
        0.000961786019615829
      ],
      "type": "VEC2"
    },
    {
      "bufferView": 0,
      "byteOffset": 1463544,
      "componentType": 5125,
      "count": 363021,
      "type": "SCALAR"
    },
    {
      "bufferView": 2,
      "byteOffset": 3145536,
      "componentType": 5126,
      "count": 10685,
      "max": [
        6.624020099639893,
        39.537498474121094,
        74.26976776123047
      ],
      "min": [
        -23.42340087890625,
        -25.106096267700195,
        7.989671230316162
      ],
      "type": "VEC3"
    },
    {
      "bufferView": 2,
      "byteOffset": 3273756,
      "componentType": 5126,
      "count": 10685,
      "max": [
        0.9820924401283264,
        0.9988711476325989,
        0.8901330232620239
      ],
      "min": [
        -0.9999969005584717,
        -0.9998998045921326,
        -0.999975323677063
      ],
      "type": "VEC3"
    },
    {
      "bufferView": 1,
      "byteOffset": 1048512,
      "componentType": 5126,
      "count": 10685,
      "max": [
        0.9223949909210205,
        0.8676499724388123
      ],
      "min": [
        0.30388200283050537,
        0.2345390021800995
      ],
      "type": "VEC2"
    },
    {
      "bufferView": 0,
      "byteOffset": 2915628,
      "componentType": 5125,
      "count": 57813,
      "type": "SCALAR"
    }
  ],
  "asset": {
    "extras": {
      "author": "Killer O (https://sketchfab.com/KillerOz1)",
      "license": "CC-BY-4.0 (http://creativecommons.org/licenses/by/4.0/)",
      "source": "https://sketchfab.com/3d-models/fat-raccoon-a688de9371c241cda6bce281cb25e71f",
      "title": "Fat Raccoon"
    },
    "generator": "Sketchfab-12.68.0",
    "version": "2.0"
  },
  "bufferViews": [
    {
      "buffer": 0,
      "byteLength": 3146880,
      "name": "floatBufferViews",
      "target": 34963
    },
    {
      "buffer": 0,
      "byteLength": 1133992,
      "byteOffset": 3146880,
      "byteStride": 8,
      "name": "floatBufferViews",
      "target": 34962
    },
    {
      "buffer": 0,
      "byteLength": 3401976,
      "byteOffset": 4280872,
      "byteStride": 12,
      "name": "floatBufferViews",
      "target": 34962
    }
  ],
  "buffers": [
    {
      "byteLength": 7682848,
      "uri": "scene.bin"
    }
  ],
  "images": [
    {
      "uri": "textures/SculptMaterial_baseColor.png"
    },
    {
      "uri": "textures/SculptMaterial_metallicRoughness.png"
    }
  ],
  "materials": [
    {
      "doubleSided": true,
      "name": "SculptMaterial",
      "pbrMetallicRoughness": {
        "baseColorTexture": {
          "index": 0
        },
        "metallicFactor": 0.23,
        "metallicRoughnessTexture": {
          "index": 1
        }
      }
    }
  ],
  "meshes": [
    {
      "name": "Object_0",
      "primitives": [
        {
          "attributes": {
            "NORMAL": 1,
            "POSITION": 0,
            "TEXCOORD_0": 2
          },
          "indices": 3,
          "material": 0,
          "mode": 4
        }
      ]
    },
    {
      "name": "Object_1",
      "primitives": [
        {
          "attributes": {
            "NORMAL": 5,
            "POSITION": 4,
            "TEXCOORD_0": 6
          },
          "indices": 7,
          "material": 0,
          "mode": 4
        }
      ]
    },
    {
      "name": "Object_2",
      "primitives": [
        {
          "attributes": {
            "NORMAL": 9,
            "POSITION": 8,
            "TEXCOORD_0": 10
          },
          "indices": 11,
          "material": 0,
          "mode": 4
        }
      ]
    }
  ],
  "nodes": [
    {
      "children": [
        1
      ],
      "matrix": [
        1.0,
        0.0,
        0.0,
        0.0,
        0.0,
        2.220446049250313e-16,
        -1.0,
        0.0,
        0.0,
        1.0,
        2.220446049250313e-16,
        0.0,
        0.0,
        0.0,
        0.0,
        1.0
      ],
      "name": "Sketchfab_model"
    },
    {
      "children": [
        2,
        3,
        4
      ],
      "name": "Fat raccoon2.obj.cleaner.gles"
    },
    {
      "mesh": 0,
      "name": "Object_2"
    },
    {
      "mesh": 1,
      "name": "Object_3"
    },
    {
      "mesh": 2,
      "name": "Object_4"
    }
  ],
  "samplers": [
    {
      "magFilter": 9729,
      "minFilter": 9987,
      "wrapS": 10497,
      "wrapT": 10497
    }
  ],
  "scene": 0,
  "scenes": [
    {
      "name": "Sketchfab_Scene",
      "nodes": [
        0
      ]
    }
  ],
  "textures": [
    {
      "sampler": 0,
      "source": 0
    },
    {
      "sampler": 0,
      "source": 1
    }
  ]
}
